# xmcd
# 
# Track frame offsets:
#     150
#     11368
#     22974
#     41648
#     51856
#     64149
#     75257
#     84762
#     95545
#     107334
#     117099
#     127953
#     137176
#     149470
#     161979
#     173839
#     185521
#     197731
#     207655
#     218962
#     232175
#     245758
#     259113
#     267152
#     277006
#     289429
#     301921
#     313538
# 
# Disc length: 4368
# 
# Revision: 1
# Processed by: cddbd v1.5.2PL0 Copyright (c) Steve Scherf et al.
# Submitted via: fre:ac v1.0.31
# 
DISCID=9b110e1c
DTITLE=Country - Songs Of Love, Loss And Longing
DYEAR=2009
DGENRE=Country
TTITLE0=I Miss You Already
TTITLE1=Just When I Needed You
TTITLE2=Echoes
TTITLE3=All Of Me Belongs To You
TTITLE4=Just One Time
TTITLE5=There He Goes
TTITLE6=Letter From Jenny
TTITLE7=I Can't Help It
TTITLE8=She Thinks I Still Care
TTITLE9=Let Me Talk To You
TTITLE10=Gone
TTITLE11=I Almost Lost My Mind
TTITLE12=Am I Losing You
TTITLE13=Someone Mentioned Your Name
TTITLE14=You Don't Know Me
TTITLE15=I Still Miss Someone
TTITLE16=I May Never Get To Heaven
TTITLE17=If You See My Love Dancing
TTITLE18=Did She Mention My Name
TTITLE19=The Tip Of My Fingers
TTITLE20=I Don't Hurt Anymore
TTITLE21=How Are You Brown Eyes
TTITLE22=Come In Stranger
TTITLE23=Then I'll Stop Loving You
TTITLE24=If She Could See Me Now
TTITLE25=Hello Love
TTITLE26=We Could
TTITLE27=What Have You Got Planned Tonight Diana
EXTD=
EXTT0=
EXTT1=
EXTT2=
EXTT3=
EXTT4=
EXTT5=
EXTT6=
EXTT7=
EXTT8=
EXTT9=
EXTT10=
EXTT11=
EXTT12=
EXTT13=
EXTT14=
EXTT15=
EXTT16=
EXTT17=
EXTT18=
EXTT19=
EXTT20=
EXTT21=
EXTT22=
EXTT23=
EXTT24=
EXTT25=
EXTT26=
EXTT27=
PLAYORDER=
